:version 1.10
:name ASF
:units
  mass 1
  length 1
  angle deg
:documentation
  ASF file generated by Kaydara
:root
  axis xyz
  order  tx ty tz rx ry rz
  position 0 0 0
  orientation 0 0 0
:bonedata
  begin
    id 1
    name LeftUpLegDummy
    direction 1 -2.30186e-007 -8.31532e-007
    length 2.93387
    axis 0 0 0 xyz
  end
  begin
    id 2
    name LeftUpLeg
    direction -1.82929e-007 -1 -1.48925e-009
    length 17.3336
    axis -3.48766 0.00143442 -0.000521554 xyz
    dof rx ry rz
  end
  begin
    id 3
    name LeftLeg
    direction -1.82929e-007 -1 -5.23717e-011
    length 14.9995
    axis 3.68178 -0.00654042 -0.000282425 xyz
    dof rx ry rz
  end
  begin
    id 4
    name LeftFoot
    direction 8.31532e-007 -4.54534e-011 1
    length 6.74421
    axis 1.87234e-006 4.66016e-005 -5.96866e-006 xyz
    dof rx ry rz
  end
  begin
    id 5
    name LeftToes
    direction 0.00818058 -0.00485161 0.999955
    length 3.85048
    axis 1.06247e-005 4.65869e-005 -5.96999e-006 xyz
    dof rx ry rz
  end
  begin
    id 6
    name SpineDummy
    direction -5.8607e-008 0.943407 -0.331637
    length 5.93572
    axis 0 0 0 xyz
  end
  begin
    id 7
    name Spine
    direction -1.04988e-007 0.999988 0.00495137
    length 10.1015
    axis -0.001389 0.000121417 6.61666e-006 xyz
    dof rx ry rz
  end
  begin
    id 8
    name Spine1
    direction 0 0 0
    length 0
    axis -0.001389 0.00012144 6.56766e-006 xyz
    dof rx ry rz
  end
  begin
    id 9
    name RightShoulderDummy
    direction -0.98348 0.17941 -0.0240696
    length 3.59882
    axis -0.001389 0.00012144 6.56766e-006 xyz
  end
  begin
    id 10
    name RightShoulder
    direction -0.978693 0.204882 0.0135597
    length 2.70001
    axis 0.215806 0.000203631 -0.00679732 xyz
    dof rx ry rz
  end
  begin
    id 11
    name RightArm
    direction -1 3.85509e-006 8.31394e-007
    length 10.2459
    axis -23.2009 -0.134239 -0.964098 xyz
    dof rx ry rz
  end
  begin
    id 12
    name RightForeArm
    direction -1 3.85569e-006 8.3129e-007
    length 8.16799
    axis -9.92322 0.0658061 0.17887 xyz
    dof rx ry rz
  end
  begin
    id 13
    name RightHand
    direction -0.992843 -0.0414604 0.112003
    length 5.28593
    axis -0.00960638 0.00330669 -0.185225 xyz
    dof rx ry rz
  end
  begin
    id 14
    name LeftShoulder1Dummy
    direction 0.983523 0.179172 -0.0240748
    length 3.59866
    axis -0.001389 0.00012144 6.56766e-006 xyz
  end
  begin
    id 15
    name LeftShoulder1
    direction 0.978627 0.205195 0.0135605
    length 2.70019
    axis -0.001389 0.00012144 6.57583e-006 xyz
    dof rx ry rz
  end
  begin
    id 16
    name LeftArm
    direction 1 3.51895e-006 -8.60188e-007
    length 10.2459
    axis -23.1894 0.134785 0.967513 xyz
    dof rx ry rz
  end
  begin
    id 17
    name LeftForeArm
    direction 1 3.51921e-006 -7.32029e-007
    length 8.16799
    axis -9.91835 -0.0656957 -0.177789 xyz
    dof rx ry rz
  end
  begin
    id 18
    name LeftHand
    direction 0.992938 -0.0411636 0.11126
    length 5.32135
    axis -0.00960237 -0.00340661 0.185177 xyz
    dof rx ry rz
  end
  begin
    id 19
    name HEadDummy
    direction 1.01974e-006 0.999861 -0.016675
    length 2.99946
    axis -0.001389 0.00012144 6.56766e-006 xyz
  end
  begin
    id 20
    name HEad
    direction -0.0222689 0.980941 0.193023
    length 5.12695
    axis -0.001389 0.00012144 6.56766e-006 xyz
    dof rx ry rz
  end
  begin
    id 21
    name RightUpLegDummy
    direction -1 2.30186e-007 8.31532e-007
    length 2.93387
    axis 0 0 0 xyz
  end
  begin
    id 22
    name RightUpLeg
    direction -1.82966e-007 -1 1.56832e-007
    length 17.3336
    axis -3.4909 -0.000906625 0.00028951 xyz
    dof rx ry rz
  end
  begin
    id 23
    name RightLeg
    direction -1.82786e-007 -1 -1.80317e-007
    length 14.9995
    axis 3.68513 0.0193739 -0.131021 xyz
    dof rx ry rz
  end
  begin
    id 24
    name RightFoot
    direction 8.31721e-007 -4.63324e-011 1
    length 6.74421
    axis 4.81691e-005 -0.120479 -0.188785 xyz
    dof rx ry rz
  end
  begin
    id 25
    name RightToes
    direction 0.00124746 -0.014064 0.9999
    length 3.85082
    axis 0.000481921 0.542163 -0.142575 xyz
    dof rx ry rz
  end
:hierarchy
  begin
    root LeftUpLegDummy SpineDummy RightUpLegDummy
    LeftUpLegDummy LeftUpLeg
    LeftUpLeg LeftLeg
    LeftLeg LeftFoot
    LeftFoot LeftToes
    SpineDummy Spine
    Spine Spine1
    Spine1 RightShoulderDummy LeftShoulder1Dummy HEadDummy
    RightShoulderDummy RightShoulder
    RightShoulder RightArm
    RightArm RightForeArm
    RightForeArm RightHand
    LeftShoulder1Dummy LeftShoulder1
    LeftShoulder1 LeftArm
    LeftArm LeftForeArm
    LeftForeArm LeftHand
    HEadDummy HEad
    RightUpLegDummy RightUpLeg
    RightUpLeg RightLeg
    RightLeg RightFoot
    RightFoot RightToes
  end

:SAMPLES-PER-SECOND 30
:FULLY-SPECIFIED
:DEGREES
213
root  -0.935939 33.8447 -3.84937 -2.12982 50.3859 -8.06838
LeftUpLeg  -4.92694 5.72672 16.7462
LeftLeg  17.6505 21.9412 5.30823
LeftFoot  4.01505 -0.0572323 1.63265
LeftToes  -22.5116 8.556e-007 1.17171e-007
Spine  1.45833 1.03721 0.682526
Spine1  2.89515 2.0319 1.33842
RightShoulder  0.044072 7.8772 6.65256
RightArm  -37.9055 -22.9084 70.8854
RightForeArm  36.6868 8.29533 1.46767
RightHand  1.24068 -13.8792 -9.79246
LeftShoulder1  0.007302 -1.1613 -7.20082
LeftArm  -23.9741 23.842 -68.0674
LeftForeArm  32.0085 -11.8377 -2.1127
LeftHand  0.187256 6.40606 2.97202
HEad  -45.7921 7.24086 -11.2658
RightUpLeg  -7.5227 -15.6812 8.54876
RightLeg  11.1777 0.168106 0.0233818
RightFoot  -1.72795 -0.00141302 -0.0140844
RightToes  -23.9088 -0.104304 -0.207483
214
root  -1.07157 33.8631 -3.73718 -1.6477 50.2739 -7.58928
LeftUpLeg  -5.8711 7.28443 16.2614
LeftLeg  19.0049 23.8327 6.31575
LeftFoot  4.35993 -0.0749388 1.96846
LeftToes  -20.66 8.556e-007 1.17171e-007
Spine  1.6084 0.984095 0.750755
Spine1  3.20562 1.92151 1.49424
RightShoulder  0.0332582 7.7558 6.53609
RightArm  -37.686 -23.7819 70.152
RightForeArm  36.3713 8.7654 1.55234
RightHand  1.21426 -13.7256 -9.68891
LeftShoulder1  0.00793328 -1.18147 -7.24179
LeftArm  -24.8879 23.3881 -68.3503
LeftForeArm  31.4502 -12.0396 -2.15014
LeftHand  0.186931 6.4621 2.94838
HEad  -44.926 7.48627 -10.9841
RightUpLeg  -7.56915 -15.3552 8.62443
RightLeg  10.9067 -0.0362795 -0.00329646
RightFoot  -1.71038 -0.00310454 -0.00615889
RightToes  -23.1163 -0.0995036 -0.201394
215
root  -1.19457 33.8688 -3.63362 -1.08791 49.9788 -7.03168
LeftUpLeg  -6.69597 8.83936 15.7408
LeftLeg  20.2412 25.67 7.33742
LeftFoot  4.71803 -0.0960414 2.33967
LeftToes  -19.228 8.556e-007 1.17171e-007
Spine  1.74537 0.912338 0.813338
Spine1  3.48269 1.77603 1.62761
RightShoulder  0.0282991 7.68399 6.43573
RightArm  -37.2938 -24.0632 69.4935
RightForeArm  36.0747 9.23104 1.63642
RightHand  1.19198 -13.5757 -9.61478
LeftShoulder1  0.00898671 -1.19507 -7.31052
LeftArm  -24.7531 22.669 -68.562
LeftForeArm  30.9928 -12.2819 -2.195
LeftHand  0.189716 6.39171 2.9953
HEad  -44.0315 7.86372 -10.6323
RightUpLeg  -7.71716 -14.943 8.64162
RightLeg  10.855 -0.177157 -0.0209789
RightFoot  -1.82382 -0.00522482 -0.000115544
RightToes  -22.4465 -0.0955126 -0.196196
216
root  -1.29858 33.8552 -3.53714 -0.580008 49.5522 -6.54179
LeftUpLeg  -7.43853 10.3092 15.3664
LeftLeg  21.5146 26.8987 8.27845
LeftFoot  4.85459 -0.107872 2.55954
LeftToes  -17.9174 8.556e-007 1.17171e-007
Spine  1.8628 0.823911 0.914995
Spine1  3.71438 1.59389 1.82979
RightShoulder  0.0293155 7.59929 6.35261
RightArm  -36.9462 -23.7194 68.8922
RightForeArm  35.7571 9.57506 1.69878
RightHand  1.18817 -13.5419 -9.60789
LeftShoulder1  0.0102918 -1.20336 -7.4475
LeftArm  -23.6416 21.7059 -68.7119
LeftForeArm  30.5094 -12.671 -2.26702
LeftHand  0.189636 6.42933 2.98879
HEad  -42.948 8.21398 -10.2452
RightUpLeg  -7.95788 -14.7129 8.65126
RightLeg  11.0906 0.0456491 0.00721483
RightFoot  -2.1465 -0.00720472 -0.00703296
RightToes  -21.8209 -0.0911931 -0.191299
217
root  -1.37962 33.8314 -3.44262 -0.214792 49.0427 -6.20306
LeftUpLeg  -8.04335 11.5355 15.1912
LeftLeg  22.7898 27.6055 9.11766
LeftFoot  4.75732 -0.107998 2.59945
LeftToes  -16.5915 8.556e-007 1.17171e-007
Spine  1.95874 0.724491 1.06907
Spine1  3.896 1.38536 2.12691
RightShoulder  0.0365469 7.53065 6.37086
RightArm  -36.7532 -22.9159 68.3026
RightForeArm  35.3801 9.89472 1.75691
RightHand  1.18866 -13.5462 -9.60093
LeftShoulder1  0.0116779 -1.26777 -7.5949
LeftArm  -22.3369 20.5213 -68.9033
LeftForeArm  30.2473 -13.0455 -2.33644
LeftHand  0.191703 6.26374 2.92104
HEad  -41.6842 8.62819 -9.75307
RightUpLeg  -8.2742 -14.9231 8.69606
RightLeg  11.6345 0.805761 0.113742
RightFoot  -2.59261 -0.00952084 -0.0432042
RightToes  -21.1437 -0.0879257 -0.185954
218
root  -1.44649 33.8122 -3.35796 0.185611 48.5008 -5.83542
LeftUpLeg  -8.56677 12.5411 15.0044
LeftLeg  23.9663 28.1185 9.8789
LeftFoot  4.62605 -0.104896 2.5965
LeftToes  -15.347 8.556e-007 1.17171e-007
Spine  2.01233 0.613869 1.23797
Spine1  3.98726 1.15643 2.45006
RightShoulder  0.0444749 7.46953 6.40982
RightArm  -36.5097 -21.7689 67.8305
RightForeArm  34.6937 10.2663 1.82485
RightHand  1.19137 -13.5502 -9.6285
LeftShoulder1  0.0129747 -1.2131 -7.85557
LeftArm  -20.761 19.021 -69.0764
LeftForeArm  29.7399 -13.3618 -2.3954
LeftHand  0.19113 6.3222 3.03698
HEad  -40.3055 8.97449 -9.42161
RightUpLeg  -8.52432 -15.1528 8.6922
RightLeg  12.0102 1.61174 0.237034
RightFoot  -2.87922 -0.0117294 -0.0891981
RightToes  -20.9614 -0.0864652 -0.184506
219
root  -1.48914 33.8118 -3.28101 0.748027 47.8909 -5.24538
LeftUpLeg  -8.93228 13.3356 14.6062
LeftLeg  24.9081 28.8404 10.609
LeftFoot  4.52316 -0.102426 2.62953
LeftToes  -13.6009 8.556e-007 1.17171e-007
Spine  2.00914 0.503063 1.36911
Spine1  3.96012 0.93172 2.70107
RightShoulder  0.0499022 7.30756 6.30849
RightArm  -36.2635 -20.403 67.7204
RightForeArm  33.8931 10.7575 1.91478
RightHand  1.19423 -13.5035 -9.6872
LeftShoulder1  0.0140114 -1.11316 -8.00763
LeftArm  -19.4669 17.4055 -69.4209
LeftForeArm  29.1532 -13.6212 -2.44394
LeftHand  0.191068 6.25411 3.12289
HEad  -38.753 9.38613 -9.13002
RightUpLeg  -8.70488 -15.3699 8.47899
RightLeg  12.3101 2.50428 0.380978
RightFoot  -3.07991 -0.0139869 -0.142753
RightToes  -20.7243 -0.0857335 -0.182976
220
root  -1.51071 33.8314 -3.22094 1.28807 47.2491 -4.5247
LeftUpLeg  -9.15356 13.6533 14.042
LeftLeg  25.8021 29.4848 11.3107
LeftFoot  4.16019 -0.0906673 2.49591
LeftToes  -11.3809 8.556e-007 1.17171e-007
Spine  2.01851 0.429695 1.45774
Spine1  3.95793 0.784879 2.87162
RightShoulder  0.0506042 7.14905 6.21961
RightArm  -35.95 -19.0295 67.8517
RightForeArm  32.8363 11.6665 2.08163
RightHand  1.16995 -13.556 -9.44537
LeftShoulder1  0.0146176 -1.17833 -8.09789
LeftArm  -18.3814 15.7514 -69.8022
LeftForeArm  28.603 -14.2246 -2.55686
LeftHand  0.183573 6.24476 2.991
HEad  -37.2262 9.71285 -8.83642
RightUpLeg  -8.70278 -15.4044 8.07832
RightLeg  12.4897 3.22619 0.500732
RightFoot  -3.14003 -0.0138159 -0.183724
RightToes  -20.5951 -0.0858406 -0.181686
221
root  -1.51715 33.8624 -3.18461 1.70681 46.7251 -3.85621
LeftUpLeg  -9.38973 13.0927 13.4306
LeftLeg  26.3676 28.2516 11.1896
LeftFoot  4.05663 -0.0822172 2.32117
LeftToes  -11.8236 8.556e-007 1.17171e-007
Spine  2.06136 0.361948 1.54942
Spine1  4.02529 0.650871 3.04647
RightShoulder  0.0492987 6.96347 6.11643
RightArm  -35.0038 -17.6252 68.1474
RightForeArm  31.6428 12.8557 2.30146
RightHand  1.15036 -13.5203 -9.30737
LeftShoulder1  0.0150313 -1.33661 -8.11631
LeftArm  -17.0978 13.9844 -70.2208
LeftForeArm  27.8417 -15.0706 -2.71623
LeftHand  0.17393 6.21311 2.83079
HEad  -35.9041 9.82288 -8.61821
RightUpLeg  -8.53772 -15.4978 7.63666
RightLeg  12.4386 3.86344 0.595815
RightFoot  -3.02412 -0.0139244 -0.209659
RightToes  -20.6893 -0.0868965 -0.182341
222
root  -1.50925 33.8952 -3.18413 1.98005 46.3086 -3.33243
LeftUpLeg  -9.90678 11.648 12.7931
LeftLeg  27.1309 25.871 10.7146
LeftFoot  3.2982 -0.0491755 1.70793
LeftToes  -12.5576 8.556e-007 1.17171e-007
Spine  2.13121 0.312749 1.69586
Spine1  4.15499 0.555616 3.33095
RightShoulder  0.0469694 6.69001 5.93326
RightArm  -33.3531 -16.2323 68.4463
RightForeArm  30.2914 14.3147 2.57402
RightHand  1.10932 -13.3977 -9.04946
LeftShoulder1  0.0155761 -1.33039 -8.17468
LeftArm  -15.4169 12.1821 -70.7147
LeftForeArm  26.9419 -16.772 -3.04053
LeftHand  0.169787 6.10966 2.80752
HEad  -34.9542 9.80066 -8.54315
RightUpLeg  -8.29516 -15.6987 7.19995
RightLeg  12.2301 4.47864 0.673763
RightFoot  -2.76758 -0.0143724 -0.220593
RightToes  -21.3326 -0.0890113 -0.187449
223
root  -1.48502 33.9307 -3.21889 2.19517 45.9566 -2.83669
LeftUpLeg  -10.6646 9.72627 12.0857
LeftLeg  28.2176 23.9368 10.4896
LeftFoot  2.41621 -0.0242496 1.14985
LeftToes  -11.7021 8.556e-007 1.17171e-007
Spine  2.23636 0.324974 1.85289
Spine1  4.35862 0.578261 3.65044
RightShoulder  0.0445598 6.45106 5.70617
RightArm  -31.4802 -14.972 68.707
RightForeArm  29.0962 15.911 2.87628
RightHand  1.07075 -13.2034 -8.85773
LeftShoulder1  0.0162098 -1.42971 -8.29222
LeftArm  -13.8494 10.3775 -71.1895
LeftForeArm  26.1488 -18.7952 -3.43405
LeftHand  0.161063 5.84375 2.78153
HEad  -34.2981 9.66818 -8.5934
RightUpLeg  -8.05412 -16.1611 6.71859
RightLeg  12.0427 5.27556 0.775626
RightFoot  -2.45607 -0.0144551 -0.228442
RightToes  -22.2164 -0.094156 -0.1944
